<svg xmlns="http://www.w3.org/2000/svg"><symbol id="mecha-stilts" viewBox="0 0 256 256"><path d="M128.1 3.7l108 62.4v124.7l-108 62.4-108-62.4V66.1l108-62.4z"/><path fill="#fff" d="M65.5 174.5a2 2 0 1 1 0-4.1h10.2v-12.9H65.5a1.9 1.9 0 0 1-2-2v-40.4a1.9 1.9 0 0 1 2-2H79C80 84 101.7 68 128.1 68s48.1 16 49.2 45.1h13.5a1.9 1.9 0 0 1 2 2v40.3a1.9 1.9 0 0 1-2 2h-10.2v12.9h10.2a2 2 0 1 1 0 4.1zm2-57.3v36.3h121.3v-36.3zm12.3 40.3v12.9h13.1v-12.9zm3.3-44.4h90.1c-1-26.4-21.1-41-45.1-41s-44 14.6-45 41zM97 157.5v12.9h20.5v-12.9zm24.6 0v12.9h13.1v-12.9zm55.5-13.9h-50a2 2 0 1 1 0-4.1h50a2 2 0 0 1 0 4.1zm-38.3 13.9v12.9h20.5v-12.9zm24.6 0v12.9h13.1v-12.9z"/></symbol><symbol id="space-bubbles" viewBox="0 0 256 256"><path d="M128.5 3.3l108 62.3v124.8l-108 62.3-108-62.3V65.6l108-62.3z"/><path fill="#fff" d="M67.5 178.6l-4.7-6.8a2.1 2.1 0 0 1 .2-2.5l17-20.1h-8.4a1.9 1.9 0 0 1-2-2v-14.7a1.9 1.9 0 0 1 2-2h11.8a57.2 57.2 0 0 1-2.3-15.6 48.4 48.4 0 0 1 96.9 0 50.3 50.3 0 0 1-2.3 15.6h11.9a1.9 1.9 0 0 1 2 2v14.7a1.9 1.9 0 0 1-2 2h-10.4l16.8 20.2a2.2 2.2 0 0 1 0 2.5l-4.7 6.8a2.2 2.2 0 0 1-2.7.6l-9.8-5.1H80l-9.8 5.1a2.2 2.2 0 0 1-2.7-.7zm31.1-29.3H85.1l-18 21.3 2.9 4.1 34.6-18.2zm-25-14.7v10.6h112v-10.7zm14.1-4.1h83.8a49.5 49.5 0 0 0 2.5-15.6 44.3 44.3 0 0 0-88.7 0c0 5.3.4 10.8 2.4 15.6zm19.7 29.3L87.9 170h27.9zm-3.5-10.4l17.2 20.6h14.7l17.2-20.7zm45.7 10.4l-8.4 10.2H169zm22.3-10.4h-13.5l-6.1 7.2 34.8 18.2 2.9-3.9z"/></symbol><symbol id="super-domes" viewBox="0 0 256 256"><path d="M127.5 3.3l108 62.3v124.8l-108 62.3-108-62.3V65.6l108-62.3z"/><path fill="#fff" d="M68.3 174.1a1.9 1.9 0 0 1-2-2v-24.9h-27a2 2 0 0 1 0-4.1h15.3v-13.3a1.9 1.9 0 0 1 2-2h8A64.9 64.9 0 0 1 127.3 78c.2-.2.4-.2.8 0 30.3.2 55.5 21.5 62.3 49.8h8a1.9 1.9 0 0 1 2 2v13.3h15.4a2 2 0 1 1 0 4.1h-27V172a1.9 1.9 0 0 1-2 2zm-9.6-42.2v11.3h137.6v-11.3zm64.7-49.6C97.2 84 75.3 103 68.9 127.8h21.9zm-53 64.9V170h55.1v-22.8zm55.1-60.8L96 127.8h29.5zm4.1-4.3v45.7h56.5a60.9 60.9 0 0 0-56.6-45.7zm0 65.1V170h9.2v-22.8zm13.3 0V170h41.8v-22.8z"/></symbol></svg>