<svg xmlns="http://www.w3.org/2000/svg"><symbol id="mecha-stilts" viewBox="0 0 256 256"><path d="M128.1 3.7l108 62.4v124.7l-108 62.4-108-62.4V66.1zm62.7 170.8a2 2 0 1 0 0-4.1h-10.2v-12.9h10.2a1.9 1.9 0 0 0 2-2v-40.4a1.9 1.9 0 0 0-2-2h-13.5C176.3 84 154.6 68 128.1 68S80 84 79 113.1H65.5a1.9 1.9 0 0 0-2 2v40.3a1.9 1.9 0 0 0 2 2h10.2v12.9H65.5a2 2 0 1 0 0 4.1zm-2-57.3v36.3H67.5v-36.3zm-95.9 40.3v12.9H79.8v-12.9zm35.2-85.4c24 0 44 14.5 45.1 41H83.1c1-26.4 21.1-41 45-41zm-10.7 85.4v12.9H97v-12.9zm17.2 0v12.9h-13v-12.9zm44.4-16a2.2 2.2 0 0 0-2-2h-50a2 2 0 1 0 0 4.1h50a2.2 2.2 0 0 0 2.1-2.1zm-19.9 16v12.9h-20.3v-12.9zm17.2 0v12.9h-12.9v-12.9z"/></symbol><symbol id="space-bubbles" viewBox="0 0 256 256"><path d="M128.5 3.3l108 62.4v124.7l-108 62.4-108-62.4V65.6zM70.1 179.2l9.8-5.1h96.9l9.8 5.1a2.2 2.2 0 0 0 2.7-.6l4.7-6.8a2.2 2.2 0 0 0 0-2.5l-16.8-20.1h10.4a1.9 1.9 0 0 0 2-2v-14.7a1.9 1.9 0 0 0-2-2h-11.8a50.3 50.3 0 0 0 2.3-15.6 48.4 48.4 0 0 0-96.9 0 57.2 57.2 0 0 0 2.3 15.6H71.6a1.9 1.9 0 0 0-2 2v14.7a1.9 1.9 0 0 0 2 2H80l-17 20.2a2.1 2.1 0 0 0-.2 2.5l4.7 6.8a2.2 2.2 0 0 0 2.6.5zm34.4-22.7l-34.6 18.2-2.9-4.1 18-21.3h13.6zm81.1-21.9v10.6h-112v-10.7zM85.3 114.9a44.3 44.3 0 0 1 88.7 0 49.5 49.5 0 0 1-2.5 15.6H87.7c-2-4.8-2.4-10.3-2.4-15.6zm30.5 55.1H87.9l19.5-10.2zm37.3-20.7L135.9 170h-14.8l-17.2-20.7zM169 170h-27.8l8.4-10.2zm20.9.8l-2.9 3.9-34.8-18.2 6.1-7.2h13.5z"/></symbol><symbol id="super-domes" viewBox="0 0 256 256"><path d="M127.5 3.3l108 62.4v124.7l-108 62.4-108-62.4V65.6zm59.2 170.8a1.9 1.9 0 0 0 2-2v-24.9h27a2 2 0 1 0 0-4.1h-15.3v-13.3a1.9 1.9 0 0 0-2-2h-8c-6.8-28.3-32-49.6-62.3-49.8-.4-.2-.6-.2-.8 0a64.9 64.9 0 0 0-62.7 49.8h-8a1.9 1.9 0 0 0-2 2v13.3H39.2a2 2 0 0 0 0 4.1h27V172a1.9 1.9 0 0 0 2 2zm9.6-42.2v11.3H58.7v-11.3zm-105.5-4.1H68.9C75.3 103 97.2 84 123.4 82.3zm34.6 19.5V170h-55v-22.8zm0-19.5H96l29.5-41.4zm60.6 0h-56.5V82.1a60.9 60.9 0 0 1 56.6 45.7zm-47.3 19.5V170h-9.2v-22.8zm45.9 0V170h-41.7v-22.8z"/></symbol></svg>